%TF.GenerationSoftware,KiCad,Pcbnew,(6.0.9)*%
%TF.CreationDate,2023-01-14T12:16:42+02:00*%
%TF.ProjectId,CPU,4350552e-6b69-4636-9164-5f7063625858,rev?*%
%TF.SameCoordinates,Original*%
%TF.FileFunction,Soldermask,Top*%
%TF.FilePolarity,Negative*%
%FSLAX46Y46*%
G04 Gerber Fmt 4.6, Leading zero omitted, Abs format (unit mm)*
G04 Created by KiCad (PCBNEW (6.0.9)) date 2023-01-14 12:16:42*
%MOMM*%
%LPD*%
G01*
G04 APERTURE LIST*
G04 Aperture macros list*
%AMRoundRect*
0 Rectangle with rounded corners*
0 $1 Rounding radius*
0 $2 $3 $4 $5 $6 $7 $8 $9 X,Y pos of 4 corners*
0 Add a 4 corners polygon primitive as box body*
4,1,4,$2,$3,$4,$5,$6,$7,$8,$9,$2,$3,0*
0 Add four circle primitives for the rounded corners*
1,1,$1+$1,$2,$3*
1,1,$1+$1,$4,$5*
1,1,$1+$1,$6,$7*
1,1,$1+$1,$8,$9*
0 Add four rect primitives between the rounded corners*
20,1,$1+$1,$2,$3,$4,$5,0*
20,1,$1+$1,$4,$5,$6,$7,0*
20,1,$1+$1,$6,$7,$8,$9,0*
20,1,$1+$1,$8,$9,$2,$3,0*%
G04 Aperture macros list end*
%ADD10O,2.108000X2.108000*%
%ADD11RoundRect,0.254000X-0.800000X0.800000X-0.800000X-0.800000X0.800000X-0.800000X0.800000X0.800000X0*%
%ADD12RoundRect,0.254000X-0.889000X-3.810000X0.889000X-3.810000X0.889000X3.810000X-0.889000X3.810000X0*%
%ADD13RoundRect,0.254000X0.800000X0.800000X-0.800000X0.800000X-0.800000X-0.800000X0.800000X-0.800000X0*%
%ADD14RoundRect,0.254000X0.800000X-0.800000X0.800000X0.800000X-0.800000X0.800000X-0.800000X-0.800000X0*%
%ADD15RoundRect,0.254000X-0.800000X-0.800000X0.800000X-0.800000X0.800000X0.800000X-0.800000X0.800000X0*%
%ADD16C,4.572000*%
%ADD17RoundRect,0.354000X0.130000X0.100000X-0.130000X0.100000X-0.130000X-0.100000X0.130000X-0.100000X0*%
%ADD18RoundRect,0.354000X-0.130000X-0.100000X0.130000X-0.100000X0.130000X0.100000X-0.130000X0.100000X0*%
G04 APERTURE END LIST*
D10*
%TO.C,U19*%
X203000000Y-108015000D03*
X200460000Y-108015000D03*
X197920000Y-108015000D03*
X195380000Y-108015000D03*
X192840000Y-108015000D03*
X190300000Y-108015000D03*
X187760000Y-108015000D03*
X185220000Y-108015000D03*
X182680000Y-108015000D03*
X180140000Y-108015000D03*
X177600000Y-108015000D03*
X175060000Y-108015000D03*
X172520000Y-108015000D03*
X169980000Y-108015000D03*
X167440000Y-108015000D03*
X164900000Y-108015000D03*
X164900000Y-92775000D03*
X167440000Y-92775000D03*
X169980000Y-92775000D03*
X172520000Y-92775000D03*
X175060000Y-92775000D03*
X177600000Y-92775000D03*
X180140000Y-92775000D03*
X182680000Y-92775000D03*
X185220000Y-92775000D03*
X187760000Y-92775000D03*
X190300000Y-92775000D03*
X192840000Y-92775000D03*
X195380000Y-92775000D03*
X197920000Y-92775000D03*
X200460000Y-92775000D03*
D11*
X203000000Y-92775000D03*
%TD*%
D12*
%TO.C,BUS1*%
X180340000Y-130492500D03*
X177800000Y-130492500D03*
X175260000Y-130492500D03*
X172720000Y-130492500D03*
X170180000Y-130492500D03*
X167640000Y-130492500D03*
X165100000Y-130492500D03*
X162560000Y-130492500D03*
X160020000Y-130492500D03*
X157480000Y-130492500D03*
X154940000Y-130492500D03*
X152400000Y-130492500D03*
X149860000Y-130492500D03*
X147320000Y-130492500D03*
X144780000Y-130492500D03*
X142240000Y-130492500D03*
X139700000Y-130492500D03*
X137160000Y-130492500D03*
X134620000Y-130492500D03*
X132080000Y-130492500D03*
X129540000Y-130492500D03*
X127000000Y-130492500D03*
X124460000Y-130492500D03*
X121920000Y-130492500D03*
X119380000Y-130492500D03*
X116840000Y-130492500D03*
X114300000Y-130492500D03*
X111760000Y-130492500D03*
X109220000Y-130492500D03*
X106680000Y-130492500D03*
X104140000Y-130492500D03*
%TD*%
D13*
%TO.C,U2*%
X160150000Y-107775000D03*
D10*
X160150000Y-105235000D03*
X160150000Y-102695000D03*
X160150000Y-100155000D03*
X160150000Y-97615000D03*
X160150000Y-95075000D03*
X160150000Y-92535000D03*
X160150000Y-89995000D03*
X160150000Y-87455000D03*
X160150000Y-84915000D03*
X152530000Y-84915000D03*
X152530000Y-87455000D03*
X152530000Y-89995000D03*
X152530000Y-92535000D03*
X152530000Y-95075000D03*
X152530000Y-97615000D03*
X152530000Y-100155000D03*
X152530000Y-102695000D03*
X152530000Y-105235000D03*
X152530000Y-107775000D03*
%TD*%
D14*
%TO.C,U21*%
X179725000Y-119350000D03*
D10*
X182265000Y-119350000D03*
X184805000Y-119350000D03*
X187345000Y-119350000D03*
X189885000Y-119350000D03*
X192425000Y-119350000D03*
X194965000Y-119350000D03*
X197505000Y-119350000D03*
X200045000Y-119350000D03*
X202585000Y-119350000D03*
X202585000Y-111730000D03*
X200045000Y-111730000D03*
X197505000Y-111730000D03*
X194965000Y-111730000D03*
X192425000Y-111730000D03*
X189885000Y-111730000D03*
X187345000Y-111730000D03*
X184805000Y-111730000D03*
X182265000Y-111730000D03*
X179725000Y-111730000D03*
%TD*%
D15*
%TO.C,U1*%
X121407000Y-67061000D03*
D10*
X121407000Y-69601000D03*
X121407000Y-72141000D03*
X121407000Y-74681000D03*
X121407000Y-77221000D03*
X121407000Y-79761000D03*
X121407000Y-82301000D03*
X121407000Y-84841000D03*
X121407000Y-87381000D03*
X121407000Y-89921000D03*
X121407000Y-92461000D03*
X121407000Y-95001000D03*
X121407000Y-97541000D03*
X121407000Y-100081000D03*
X121407000Y-102621000D03*
X121407000Y-105161000D03*
X121407000Y-107701000D03*
X121407000Y-110241000D03*
X121407000Y-112781000D03*
X121407000Y-115321000D03*
X136647000Y-115321000D03*
X136647000Y-112781000D03*
X136647000Y-110241000D03*
X136647000Y-107701000D03*
X136647000Y-105161000D03*
X136647000Y-102621000D03*
X136647000Y-100081000D03*
X136647000Y-97541000D03*
X136647000Y-95001000D03*
X136647000Y-92461000D03*
X136647000Y-89921000D03*
X136647000Y-87381000D03*
X136647000Y-84841000D03*
X136647000Y-82301000D03*
X136647000Y-79761000D03*
X136647000Y-77221000D03*
X136647000Y-74681000D03*
X136647000Y-72141000D03*
X136647000Y-69601000D03*
X136647000Y-67061000D03*
%TD*%
D15*
%TO.C,U7*%
X139964000Y-69601000D03*
D10*
X139964000Y-72141000D03*
X139964000Y-74681000D03*
X139964000Y-77221000D03*
X139964000Y-79761000D03*
X139964000Y-82301000D03*
X139964000Y-84841000D03*
X139964000Y-87381000D03*
X139964000Y-89921000D03*
X139964000Y-92461000D03*
X147584000Y-92461000D03*
X147584000Y-89921000D03*
X147584000Y-87381000D03*
X147584000Y-84841000D03*
X147584000Y-82301000D03*
X147584000Y-79761000D03*
X147584000Y-77221000D03*
X147584000Y-74681000D03*
X147584000Y-72141000D03*
X147584000Y-69601000D03*
%TD*%
D15*
%TO.C,U4*%
X139954000Y-97536000D03*
D10*
X139954000Y-100076000D03*
X139954000Y-102616000D03*
X139954000Y-105156000D03*
X139954000Y-107696000D03*
X139954000Y-110236000D03*
X139954000Y-112776000D03*
X139954000Y-115316000D03*
X147574000Y-115316000D03*
X147574000Y-112776000D03*
X147574000Y-110236000D03*
X147574000Y-107696000D03*
X147574000Y-105156000D03*
X147574000Y-102616000D03*
X147574000Y-100076000D03*
X147574000Y-97536000D03*
%TD*%
D13*
%TO.C,U3*%
X117846000Y-107691000D03*
D10*
X117846000Y-105151000D03*
X117846000Y-102611000D03*
X117846000Y-100071000D03*
X117846000Y-97531000D03*
X117846000Y-94991000D03*
X117846000Y-92451000D03*
X117846000Y-89911000D03*
X117846000Y-87371000D03*
X117846000Y-84831000D03*
X110226000Y-84831000D03*
X110226000Y-87371000D03*
X110226000Y-89911000D03*
X110226000Y-92451000D03*
X110226000Y-94991000D03*
X110226000Y-97531000D03*
X110226000Y-100071000D03*
X110226000Y-102611000D03*
X110226000Y-105151000D03*
X110226000Y-107691000D03*
%TD*%
D16*
%TO.C,HOLE1*%
X201930000Y-67310000D03*
%TD*%
%TO.C,HOLE2*%
X201930000Y-123825000D03*
%TD*%
D11*
%TO.C,U5*%
X203000000Y-74275000D03*
D10*
X200460000Y-74275000D03*
X197920000Y-74275000D03*
X195380000Y-74275000D03*
X192840000Y-74275000D03*
X190300000Y-74275000D03*
X187760000Y-74275000D03*
X185220000Y-74275000D03*
X182680000Y-74275000D03*
X180140000Y-74275000D03*
X177600000Y-74275000D03*
X175060000Y-74275000D03*
X172520000Y-74275000D03*
X169980000Y-74275000D03*
X167440000Y-74275000D03*
X164900000Y-74275000D03*
X164900000Y-89515000D03*
X167440000Y-89515000D03*
X169980000Y-89515000D03*
X172520000Y-89515000D03*
X175060000Y-89515000D03*
X177600000Y-89515000D03*
X180140000Y-89515000D03*
X182680000Y-89515000D03*
X185220000Y-89515000D03*
X187760000Y-89515000D03*
X190300000Y-89515000D03*
X192840000Y-89515000D03*
X195380000Y-89515000D03*
X197920000Y-89515000D03*
X200460000Y-89515000D03*
X203000000Y-89515000D03*
%TD*%
D17*
%TO.C,R2*%
X119700000Y-110236000D03*
X119060000Y-110236000D03*
%TD*%
%TO.C,R1*%
X131547000Y-89916000D03*
X130907000Y-89916000D03*
%TD*%
D18*
%TO.C,R3*%
X155037000Y-123190000D03*
X155677000Y-123190000D03*
%TD*%
M02*
