%TF.GenerationSoftware,KiCad,Pcbnew,(6.0.9)*%
%TF.CreationDate,2023-01-14T12:16:42+02:00*%
%TF.ProjectId,CPU,4350552e-6b69-4636-9164-5f7063625858,rev?*%
%TF.SameCoordinates,Original*%
%TF.FileFunction,Copper,L3,Inr*%
%TF.FilePolarity,Positive*%
%FSLAX46Y46*%
G04 Gerber Fmt 4.6, Leading zero omitted, Abs format (unit mm)*
G04 Created by KiCad (PCBNEW (6.0.9)) date 2023-01-14 12:16:42*
%MOMM*%
%LPD*%
G01*
G04 APERTURE LIST*
%TA.AperFunction,ComponentPad*%
%ADD10O,1.600000X1.600000*%
%TD*%
%TA.AperFunction,ComponentPad*%
%ADD11R,1.600000X1.600000*%
%TD*%
%TA.AperFunction,ComponentPad*%
%ADD12C,4.064000*%
%TD*%
%TA.AperFunction,ViaPad*%
%ADD13C,0.800000*%
%TD*%
%TA.AperFunction,Conductor*%
%ADD14C,0.250000*%
%TD*%
%TA.AperFunction,Conductor*%
%ADD15C,0.600000*%
%TD*%
%TA.AperFunction,Conductor*%
%ADD16C,1.524000*%
%TD*%
G04 APERTURE END LIST*
D10*
%TO.N,VCC*%
%TO.C,U19*%
X203000000Y-108015000D03*
%TO.N,A15*%
X200460000Y-108015000D03*
%TO.N,A17*%
X197920000Y-108015000D03*
%TO.N,MEMW*%
X195380000Y-108015000D03*
%TO.N,A13*%
X192840000Y-108015000D03*
%TO.N,A8*%
X190300000Y-108015000D03*
%TO.N,A9*%
X187760000Y-108015000D03*
%TO.N,A11*%
X185220000Y-108015000D03*
%TO.N,MEMR*%
X182680000Y-108015000D03*
%TO.N,A10*%
X180140000Y-108015000D03*
%TO.N,CS640*%
X177600000Y-108015000D03*
%TO.N,D7*%
X175060000Y-108015000D03*
%TO.N,D6*%
X172520000Y-108015000D03*
%TO.N,D5*%
X169980000Y-108015000D03*
%TO.N,D4*%
X167440000Y-108015000D03*
%TO.N,D3*%
X164900000Y-108015000D03*
%TO.N,GND*%
X164900000Y-92775000D03*
%TO.N,D2*%
X167440000Y-92775000D03*
%TO.N,D1*%
X169980000Y-92775000D03*
%TO.N,D0*%
X172520000Y-92775000D03*
%TO.N,A0*%
X175060000Y-92775000D03*
%TO.N,A1*%
X177600000Y-92775000D03*
%TO.N,A2*%
X180140000Y-92775000D03*
%TO.N,A3*%
X182680000Y-92775000D03*
%TO.N,A4*%
X185220000Y-92775000D03*
%TO.N,A5*%
X187760000Y-92775000D03*
%TO.N,A6*%
X190300000Y-92775000D03*
%TO.N,A7*%
X192840000Y-92775000D03*
%TO.N,A12*%
X195380000Y-92775000D03*
%TO.N,A14*%
X197920000Y-92775000D03*
%TO.N,A16*%
X200460000Y-92775000D03*
D11*
%TO.N,A18*%
X203000000Y-92775000D03*
%TD*%
%TO.N,DTR*%
%TO.C,U2*%
X160150000Y-107775000D03*
D10*
%TO.N,AD0*%
X160150000Y-105235000D03*
%TO.N,AD1*%
X160150000Y-102695000D03*
%TO.N,AD2*%
X160150000Y-100155000D03*
%TO.N,AD3*%
X160150000Y-97615000D03*
%TO.N,AD4*%
X160150000Y-95075000D03*
%TO.N,AD5*%
X160150000Y-92535000D03*
%TO.N,AD6*%
X160150000Y-89995000D03*
%TO.N,AD7*%
X160150000Y-87455000D03*
%TO.N,GND*%
X160150000Y-84915000D03*
%TO.N,D7*%
X152530000Y-84915000D03*
%TO.N,D6*%
X152530000Y-87455000D03*
%TO.N,D5*%
X152530000Y-89995000D03*
%TO.N,D4*%
X152530000Y-92535000D03*
%TO.N,D3*%
X152530000Y-95075000D03*
%TO.N,D2*%
X152530000Y-97615000D03*
%TO.N,D1*%
X152530000Y-100155000D03*
%TO.N,D0*%
X152530000Y-102695000D03*
%TO.N,DEN*%
X152530000Y-105235000D03*
%TO.N,VCC*%
X152530000Y-107775000D03*
%TD*%
D11*
%TO.N,AEN*%
%TO.C,U21*%
X179725000Y-119350000D03*
D10*
%TO.N,GND*%
X182265000Y-119350000D03*
X184805000Y-119350000D03*
X187345000Y-119350000D03*
X189885000Y-119350000D03*
X192425000Y-119350000D03*
X194965000Y-119350000D03*
X197505000Y-119350000D03*
X200045000Y-119350000D03*
X202585000Y-119350000D03*
X202585000Y-111730000D03*
X200045000Y-111730000D03*
X197505000Y-111730000D03*
%TO.N,A17*%
X194965000Y-111730000D03*
%TO.N,GND*%
X192425000Y-111730000D03*
%TO.N,A18*%
X189885000Y-111730000D03*
%TO.N,VCC*%
X187345000Y-111730000D03*
%TO.N,A19*%
X184805000Y-111730000D03*
%TO.N,CS640*%
X182265000Y-111730000D03*
%TO.N,VCC*%
X179725000Y-111730000D03*
%TD*%
D11*
%TO.N,GND*%
%TO.C,U1*%
X121407000Y-67061000D03*
D10*
%TO.N,A14*%
X121407000Y-69601000D03*
%TO.N,A13*%
X121407000Y-72141000D03*
%TO.N,A12*%
X121407000Y-74681000D03*
%TO.N,A11*%
X121407000Y-77221000D03*
%TO.N,A10*%
X121407000Y-79761000D03*
%TO.N,A9*%
X121407000Y-82301000D03*
%TO.N,A8*%
X121407000Y-84841000D03*
%TO.N,AD7*%
X121407000Y-87381000D03*
%TO.N,AD6*%
X121407000Y-89921000D03*
%TO.N,AD5*%
X121407000Y-92461000D03*
%TO.N,AD4*%
X121407000Y-95001000D03*
%TO.N,AD3*%
X121407000Y-97541000D03*
%TO.N,AD2*%
X121407000Y-100081000D03*
%TO.N,AD1*%
X121407000Y-102621000D03*
%TO.N,AD0*%
X121407000Y-105161000D03*
%TO.N,GND*%
X121407000Y-107701000D03*
%TO.N,INT*%
X121407000Y-110241000D03*
%TO.N,CLK*%
X121407000Y-112781000D03*
%TO.N,GND*%
X121407000Y-115321000D03*
%TO.N,RESET*%
X136647000Y-115321000D03*
%TO.N,IO_READY*%
X136647000Y-112781000D03*
%TO.N,GND*%
X136647000Y-110241000D03*
%TO.N,INTACK*%
X136647000Y-107701000D03*
%TO.N,ALE*%
X136647000Y-105161000D03*
%TO.N,DEN*%
X136647000Y-102621000D03*
%TO.N,DTR*%
X136647000Y-100081000D03*
%TO.N,IOM*%
X136647000Y-97541000D03*
%TO.N,WR*%
X136647000Y-95001000D03*
%TO.N,HLDA*%
X136647000Y-92461000D03*
%TO.N,HOLD*%
X136647000Y-89921000D03*
%TO.N,RD*%
X136647000Y-87381000D03*
%TO.N,VCC*%
X136647000Y-84841000D03*
%TO.N,unconnected-(U1-Pad34)*%
X136647000Y-82301000D03*
%TO.N,A_19*%
X136647000Y-79761000D03*
%TO.N,A_18*%
X136647000Y-77221000D03*
%TO.N,A_17*%
X136647000Y-74681000D03*
%TO.N,A_16*%
X136647000Y-72141000D03*
%TO.N,A15*%
X136647000Y-69601000D03*
%TO.N,VCC*%
X136647000Y-67061000D03*
%TD*%
D11*
%TO.N,HLDA*%
%TO.C,U7*%
X139964000Y-69601000D03*
D10*
%TO.N,A_16*%
X139964000Y-72141000D03*
%TO.N,A_17*%
X139964000Y-74681000D03*
%TO.N,A_18*%
X139964000Y-77221000D03*
%TO.N,A_19*%
X139964000Y-79761000D03*
%TO.N,unconnected-(U7-Pad6)*%
X139964000Y-82301000D03*
%TO.N,unconnected-(U7-Pad7)*%
X139964000Y-84841000D03*
%TO.N,unconnected-(U7-Pad8)*%
X139964000Y-87381000D03*
%TO.N,unconnected-(U7-Pad9)*%
X139964000Y-89921000D03*
%TO.N,GND*%
X139964000Y-92461000D03*
%TO.N,ALE*%
X147584000Y-92461000D03*
%TO.N,unconnected-(U7-Pad12)*%
X147584000Y-89921000D03*
%TO.N,unconnected-(U7-Pad13)*%
X147584000Y-87381000D03*
%TO.N,unconnected-(U7-Pad14)*%
X147584000Y-84841000D03*
%TO.N,unconnected-(U7-Pad15)*%
X147584000Y-82301000D03*
%TO.N,A19*%
X147584000Y-79761000D03*
%TO.N,A18*%
X147584000Y-77221000D03*
%TO.N,A17*%
X147584000Y-74681000D03*
%TO.N,A16*%
X147584000Y-72141000D03*
%TO.N,VCC*%
X147584000Y-69601000D03*
%TD*%
D11*
%TO.N,RD*%
%TO.C,U4*%
X139954000Y-97536000D03*
D10*
%TO.N,WR*%
X139954000Y-100076000D03*
%TO.N,IOM*%
X139954000Y-102616000D03*
%TO.N,GND*%
X139954000Y-105156000D03*
X139954000Y-107696000D03*
%TO.N,VCC*%
X139954000Y-110236000D03*
%TO.N,unconnected-(U4-Pad7)*%
X139954000Y-112776000D03*
%TO.N,GND*%
X139954000Y-115316000D03*
%TO.N,IOR*%
X147574000Y-115316000D03*
%TO.N,IOW*%
X147574000Y-112776000D03*
%TO.N,unconnected-(U4-Pad11)*%
X147574000Y-110236000D03*
%TO.N,unconnected-(U4-Pad12)*%
X147574000Y-107696000D03*
%TO.N,MEMR*%
X147574000Y-105156000D03*
%TO.N,MEMW*%
X147574000Y-102616000D03*
%TO.N,unconnected-(U4-Pad15)*%
X147574000Y-100076000D03*
%TO.N,VCC*%
X147574000Y-97536000D03*
%TD*%
D11*
%TO.N,HLDA*%
%TO.C,U3*%
X117846000Y-107691000D03*
D10*
%TO.N,AD0*%
X117846000Y-105151000D03*
%TO.N,AD1*%
X117846000Y-102611000D03*
%TO.N,AD2*%
X117846000Y-100071000D03*
%TO.N,AD3*%
X117846000Y-97531000D03*
%TO.N,AD4*%
X117846000Y-94991000D03*
%TO.N,AD5*%
X117846000Y-92451000D03*
%TO.N,AD6*%
X117846000Y-89911000D03*
%TO.N,AD7*%
X117846000Y-87371000D03*
%TO.N,GND*%
X117846000Y-84831000D03*
%TO.N,ALE*%
X110226000Y-84831000D03*
%TO.N,A7*%
X110226000Y-87371000D03*
%TO.N,A6*%
X110226000Y-89911000D03*
%TO.N,A5*%
X110226000Y-92451000D03*
%TO.N,A4*%
X110226000Y-94991000D03*
%TO.N,A3*%
X110226000Y-97531000D03*
%TO.N,A2*%
X110226000Y-100071000D03*
%TO.N,A1*%
X110226000Y-102611000D03*
%TO.N,A0*%
X110226000Y-105151000D03*
%TO.N,VCC*%
X110226000Y-107691000D03*
%TD*%
D12*
%TO.N,unconnected-(HOLE1-Pad1)*%
%TO.C,HOLE1*%
X201930000Y-67310000D03*
%TD*%
%TO.N,unconnected-(HOLE2-Pad1)*%
%TO.C,HOLE2*%
X201930000Y-123825000D03*
%TD*%
D11*
%TO.N,A18*%
%TO.C,U5*%
X203000000Y-74275000D03*
D10*
%TO.N,A16*%
X200460000Y-74275000D03*
%TO.N,A14*%
X197920000Y-74275000D03*
%TO.N,A12*%
X195380000Y-74275000D03*
%TO.N,A7*%
X192840000Y-74275000D03*
%TO.N,A6*%
X190300000Y-74275000D03*
%TO.N,A5*%
X187760000Y-74275000D03*
%TO.N,A4*%
X185220000Y-74275000D03*
%TO.N,A3*%
X182680000Y-74275000D03*
%TO.N,A2*%
X180140000Y-74275000D03*
%TO.N,A1*%
X177600000Y-74275000D03*
%TO.N,A0*%
X175060000Y-74275000D03*
%TO.N,D0*%
X172520000Y-74275000D03*
%TO.N,D1*%
X169980000Y-74275000D03*
%TO.N,D2*%
X167440000Y-74275000D03*
%TO.N,GND*%
X164900000Y-74275000D03*
%TO.N,D3*%
X164900000Y-89515000D03*
%TO.N,D4*%
X167440000Y-89515000D03*
%TO.N,D5*%
X169980000Y-89515000D03*
%TO.N,D6*%
X172520000Y-89515000D03*
%TO.N,D7*%
X175060000Y-89515000D03*
%TO.N,A19*%
X177600000Y-89515000D03*
%TO.N,A10*%
X180140000Y-89515000D03*
%TO.N,MEMR*%
X182680000Y-89515000D03*
%TO.N,A11*%
X185220000Y-89515000D03*
%TO.N,A9*%
X187760000Y-89515000D03*
%TO.N,A8*%
X190300000Y-89515000D03*
%TO.N,A13*%
X192840000Y-89515000D03*
%TO.N,MEMW*%
X195380000Y-89515000D03*
%TO.N,A17*%
X197920000Y-89515000D03*
%TO.N,A15*%
X200460000Y-89515000D03*
%TO.N,VCC*%
X203000000Y-89515000D03*
%TD*%
D13*
%TO.N,GND*%
X121500000Y-119000000D03*
X118500000Y-115500000D03*
X119000000Y-119000000D03*
X121500000Y-121500000D03*
X114500000Y-124500000D03*
X118500000Y-123500000D03*
X133500000Y-123500000D03*
X159000000Y-120000000D03*
X161500000Y-124000000D03*
X161500000Y-115000000D03*
X164000000Y-115000000D03*
X164000000Y-124000000D03*
X166500000Y-115000000D03*
X166500000Y-120000000D03*
X171500000Y-124000000D03*
X174000000Y-113000000D03*
X171500000Y-115000000D03*
X169000000Y-115000000D03*
X201500000Y-102000000D03*
X201500000Y-98000000D03*
X157500000Y-95000000D03*
X157500000Y-92500000D03*
X157500000Y-90000000D03*
X157500000Y-87500000D03*
X156500000Y-85000000D03*
X160020000Y-68580000D03*
X165100000Y-68580000D03*
X170180000Y-68580000D03*
X175260000Y-68580000D03*
X180340000Y-68580000D03*
X185420000Y-68580000D03*
X190500000Y-68580000D03*
X195580000Y-68580000D03*
X195580000Y-124460000D03*
X190500000Y-124460000D03*
X185420000Y-124460000D03*
X119380000Y-78740000D03*
X114300000Y-78740000D03*
X109220000Y-78740000D03*
X109220000Y-73660000D03*
X114300000Y-73660000D03*
X119380000Y-73660000D03*
X119380000Y-68580000D03*
X114300000Y-68580000D03*
X104140000Y-68580000D03*
X104140000Y-73660000D03*
X104140000Y-78740000D03*
X104140000Y-83820000D03*
X104140000Y-88900000D03*
X104140000Y-93980000D03*
X104140000Y-99060000D03*
X104140000Y-104140000D03*
X104140000Y-109220000D03*
X104140000Y-114300000D03*
X104140000Y-119380000D03*
%TO.N,MEMW*%
X153100000Y-111150000D03*
X164250000Y-104950000D03*
%TO.N,MEMR*%
X151450000Y-111600000D03*
%TO.N,MEMW*%
X177550000Y-101450000D03*
%TO.N,MEMR*%
X177600000Y-103400000D03*
X180350000Y-103400000D03*
%TO.N,MEMW*%
X180350000Y-101450000D03*
%TO.N,A10*%
X142000000Y-85000000D03*
X133000000Y-85000000D03*
X165050000Y-84850000D03*
X174975000Y-84850000D03*
%TO.N,A11*%
X128025000Y-122750000D03*
X132975000Y-117800000D03*
X144000000Y-117800000D03*
X177525000Y-100425000D03*
X182800000Y-95150000D03*
%TO.N,A12*%
X128775000Y-120150000D03*
X148900000Y-118025000D03*
X177625000Y-104575000D03*
%TO.N,A13*%
X132250000Y-121075000D03*
X151175000Y-117650000D03*
X177600000Y-105875000D03*
%TO.N,A14*%
X135825000Y-122100000D03*
X156300000Y-116450000D03*
X158525000Y-114225000D03*
X183900000Y-109800000D03*
%TO.N,A15*%
X139225000Y-122975000D03*
X153875000Y-117675000D03*
%TO.N,A17*%
X146300000Y-124975000D03*
X157750000Y-116900000D03*
%TO.N,A9*%
X154294000Y-73556000D03*
X129100000Y-74600000D03*
%TO.N,A8*%
X184775000Y-77775000D03*
X152746000Y-76096000D03*
X131275000Y-76775000D03*
%TO.N,AEN*%
X171475000Y-121625000D03*
X156200000Y-121625000D03*
%TO.N,A18*%
X160400000Y-70950000D03*
%TO.N,GND*%
X130125000Y-95100000D03*
X131800000Y-92650000D03*
X129325000Y-90150000D03*
X123300000Y-97600000D03*
%TO.N,ALE*%
X132925000Y-102775000D03*
X132925000Y-95150000D03*
%TO.N,A7*%
X151225000Y-78550000D03*
X129875000Y-78550000D03*
%TO.N,A6*%
X150100000Y-81050000D03*
X129925000Y-81050000D03*
%TO.N,A5*%
X167350000Y-83450000D03*
X132050000Y-83450000D03*
%TO.N,A4*%
X172394000Y-86256000D03*
%TO.N,A3*%
X174500000Y-87750000D03*
%TO.N,A2*%
X177550000Y-91200000D03*
%TO.N,GND*%
X156500000Y-123200000D03*
%TO.N,INT*%
X166400000Y-124300000D03*
%TO.N,DTR*%
X143800000Y-104900000D03*
%TO.N,DEN*%
X143800000Y-106400000D03*
%TO.N,HOLD*%
X134366000Y-108984000D03*
%TO.N,HLDA*%
X135522000Y-108978000D03*
X143675000Y-124200000D03*
%TO.N,HOLD*%
X142240000Y-124206000D03*
%TO.N,RESET*%
X176850000Y-124150000D03*
%TO.N,IO_READY*%
X149100000Y-111550000D03*
%TO.N,INTACK*%
X116840000Y-124315000D03*
%TO.N,ALE*%
X111760000Y-125035000D03*
%TO.N,CLK*%
X132080000Y-124805000D03*
%TO.N,A0*%
X120142000Y-111506000D03*
X115570000Y-105156000D03*
%TO.N,HLDA*%
X135522000Y-106540000D03*
%TO.N,HOLD*%
X134366000Y-106540000D03*
%TO.N,INTACK*%
X133096000Y-107696000D03*
%TO.N,A0*%
X130302000Y-111506000D03*
%TD*%
D14*
%TO.N,MEMW*%
X164250000Y-106150000D02*
X164250000Y-104950000D01*
X154500000Y-109750000D02*
X160650000Y-109750000D01*
X160650000Y-109750000D02*
X164250000Y-106150000D01*
X153100000Y-111150000D02*
X154500000Y-109750000D01*
%TO.N,MEMR*%
X182680000Y-105730000D02*
X180350000Y-103400000D01*
X182680000Y-108015000D02*
X182680000Y-105730000D01*
%TO.N,MEMW*%
X191450000Y-93215991D02*
X183215991Y-101450000D01*
X191450000Y-92574009D02*
X191450000Y-93215991D01*
X183215991Y-101450000D02*
X180350000Y-101450000D01*
X194509009Y-89515000D02*
X191450000Y-92574009D01*
X195380000Y-89515000D02*
X194509009Y-89515000D01*
%TO.N,A10*%
X143284000Y-83716000D02*
X142000000Y-85000000D01*
X163916000Y-83716000D02*
X143284000Y-83716000D01*
X165050000Y-84850000D02*
X163916000Y-83716000D01*
X175475000Y-84850000D02*
X174975000Y-84850000D01*
X180140000Y-89515000D02*
X175475000Y-84850000D01*
%TO.N,A11*%
X132975000Y-117800000D02*
X128025000Y-122750000D01*
X147675000Y-117800000D02*
X144000000Y-117800000D01*
X148700000Y-116775000D02*
X147675000Y-117800000D01*
X165825000Y-110700000D02*
X154775000Y-110700000D01*
X168565000Y-108480991D02*
X166345991Y-110700000D01*
X168565000Y-107839009D02*
X168565000Y-108480991D01*
X175979009Y-100425000D02*
X168565000Y-107839009D01*
X154775000Y-110700000D02*
X148700000Y-116775000D01*
X166345991Y-110700000D02*
X165825000Y-110700000D01*
X177525000Y-100425000D02*
X175979009Y-100425000D01*
X184095000Y-93855000D02*
X182800000Y-95150000D01*
X184095000Y-90640000D02*
X184095000Y-93855000D01*
X185220000Y-89515000D02*
X184095000Y-90640000D01*
%TO.N,A12*%
X153675000Y-113250000D02*
X148900000Y-118025000D01*
%TO.N,VCC*%
X141079000Y-109111000D02*
X151194000Y-109111000D01*
X139954000Y-110236000D02*
X141079000Y-109111000D01*
X151194000Y-109111000D02*
X152530000Y-107775000D01*
%TO.N,A12*%
X155200000Y-111725000D02*
X153675000Y-113250000D01*
X167860991Y-111725000D02*
X166000000Y-111725000D01*
X166000000Y-111725000D02*
X155200000Y-111725000D01*
X171105000Y-108480991D02*
X167860991Y-111725000D01*
X171105000Y-107549009D02*
X171105000Y-108480991D01*
X177625000Y-104575000D02*
X174079009Y-104575000D01*
X174079009Y-104575000D02*
X171105000Y-107549009D01*
%TO.N,A13*%
X155875000Y-112950000D02*
X151175000Y-117650000D01*
X158400000Y-112950000D02*
X155875000Y-112950000D01*
X173935000Y-107549009D02*
X173935000Y-108190991D01*
X173935000Y-108190991D02*
X169175991Y-112950000D01*
X175609009Y-105875000D02*
X173935000Y-107549009D01*
X169175991Y-112950000D02*
X158400000Y-112950000D01*
X177600000Y-105875000D02*
X175609009Y-105875000D01*
%TO.N,A14*%
X158525000Y-114225000D02*
X156300000Y-116450000D01*
X183900000Y-106795000D02*
X183900000Y-109800000D01*
X197920000Y-92775000D02*
X183900000Y-106795000D01*
%TO.N,A15*%
X198630000Y-112195991D02*
X193150991Y-117675000D01*
X193150991Y-117675000D02*
X184925000Y-117675000D01*
X184925000Y-117675000D02*
X153875000Y-117675000D01*
X198630000Y-109845000D02*
X198630000Y-112195991D01*
X200460000Y-108015000D02*
X198630000Y-109845000D01*
%TO.N,A17*%
X189800000Y-116900000D02*
X183800000Y-116900000D01*
X191950000Y-114745000D02*
X191950000Y-114750000D01*
X191950000Y-114750000D02*
X189800000Y-116900000D01*
X183800000Y-116900000D02*
X157750000Y-116900000D01*
X194965000Y-111730000D02*
X191950000Y-114745000D01*
%TO.N,A9*%
X176045000Y-77800000D02*
X187760000Y-89515000D01*
X161775000Y-77800000D02*
X176045000Y-77800000D01*
X157531000Y-73556000D02*
X161775000Y-77800000D01*
X154294000Y-73556000D02*
X157531000Y-73556000D01*
X129100000Y-74608000D02*
X129100000Y-74600000D01*
X121407000Y-82301000D02*
X129100000Y-74608000D01*
%TO.N,A8*%
X184775000Y-77775000D02*
X190300000Y-83300000D01*
X190300000Y-83300000D02*
X190300000Y-89515000D01*
X130175000Y-76775000D02*
X131275000Y-76775000D01*
X129473000Y-76775000D02*
X130175000Y-76775000D01*
X121407000Y-84841000D02*
X129473000Y-76775000D01*
%TO.N,AEN*%
X156200000Y-121625000D02*
X171475000Y-121625000D01*
D15*
%TO.N,VCC*%
X200700000Y-76725000D02*
X163275000Y-76725000D01*
X203000000Y-79025000D02*
X200700000Y-76725000D01*
X163275000Y-76725000D02*
X156151000Y-69601000D01*
X156151000Y-69601000D02*
X147584000Y-69601000D01*
X203000000Y-89515000D02*
X203000000Y-79025000D01*
D14*
%TO.N,ALE*%
X135311000Y-105161000D02*
X136647000Y-105161000D01*
X132925000Y-102775000D02*
X135311000Y-105161000D01*
X134489000Y-93586000D02*
X132925000Y-95150000D01*
X146459000Y-93586000D02*
X134489000Y-93586000D01*
X147584000Y-92461000D02*
X146459000Y-93586000D01*
%TO.N,A7*%
X123175000Y-85250000D02*
X129875000Y-78550000D01*
X117819000Y-85956000D02*
X117829000Y-85966000D01*
X122459000Y-85966000D02*
X123175000Y-85250000D01*
X111641000Y-85956000D02*
X117819000Y-85956000D01*
X110226000Y-87371000D02*
X111641000Y-85956000D01*
X117829000Y-85966000D02*
X122459000Y-85966000D01*
%TO.N,A6*%
X123000000Y-87975000D02*
X129925000Y-81050000D01*
X122189000Y-88786000D02*
X123000000Y-87975000D01*
X111351000Y-88786000D02*
X122189000Y-88786000D01*
X110226000Y-89911000D02*
X111351000Y-88786000D01*
%TO.N,A5*%
X130200000Y-83450000D02*
X132050000Y-83450000D01*
X123500000Y-90150000D02*
X130200000Y-83450000D01*
X111351000Y-91326000D02*
X122324000Y-91326000D01*
X122324000Y-91326000D02*
X123500000Y-90150000D01*
X110226000Y-92451000D02*
X111351000Y-91326000D01*
%TO.N,A4*%
X123400000Y-92600000D02*
X129744000Y-86256000D01*
X122134000Y-93866000D02*
X123400000Y-92600000D01*
X111351000Y-93866000D02*
X122134000Y-93866000D01*
X129744000Y-86256000D02*
X172394000Y-86256000D01*
X110226000Y-94991000D02*
X111351000Y-93866000D01*
%TO.N,A3*%
X164224009Y-88600000D02*
X165074009Y-87750000D01*
X165074009Y-87750000D02*
X174500000Y-87750000D01*
X155550000Y-88600000D02*
X164224009Y-88600000D01*
X129398991Y-88600000D02*
X155550000Y-88600000D01*
X118100000Y-96350000D02*
X121648991Y-96350000D01*
X111407000Y-96350000D02*
X118100000Y-96350000D01*
X121648991Y-96350000D02*
X129398991Y-88600000D01*
X110226000Y-97531000D02*
X111407000Y-96350000D01*
%TO.N,A2*%
X124500000Y-97700000D02*
X131000000Y-91200000D01*
X123254000Y-98946000D02*
X124500000Y-97700000D01*
X111351000Y-98946000D02*
X123254000Y-98946000D01*
X131000000Y-91200000D02*
X177550000Y-91200000D01*
X110226000Y-100071000D02*
X111351000Y-98946000D01*
%TO.N,A1*%
X176475000Y-91650000D02*
X177600000Y-92775000D01*
X174594009Y-91650000D02*
X176475000Y-91650000D01*
X173935000Y-92309009D02*
X174594009Y-91650000D01*
X173935000Y-93215000D02*
X173935000Y-92309009D01*
X168410000Y-98740000D02*
X173935000Y-93215000D01*
X139779000Y-98740000D02*
X168410000Y-98740000D01*
X139700000Y-98661000D02*
X139779000Y-98740000D01*
X139695000Y-98666000D02*
X139700000Y-98661000D01*
X125834000Y-98666000D02*
X139695000Y-98666000D01*
X123014000Y-101486000D02*
X125834000Y-98666000D01*
X111351000Y-101486000D02*
X123014000Y-101486000D01*
X110226000Y-102611000D02*
X111351000Y-101486000D01*
%TO.N,A0*%
X166344000Y-101491000D02*
X175060000Y-92775000D01*
X125509000Y-101491000D02*
X166344000Y-101491000D01*
X122974000Y-104026000D02*
X125509000Y-101491000D01*
X111351000Y-104026000D02*
X122974000Y-104026000D01*
X110226000Y-105151000D02*
X111351000Y-104026000D01*
D16*
%TO.N,VCC*%
X133300000Y-81494000D02*
X136647000Y-84841000D01*
X133300000Y-70408000D02*
X133300000Y-81494000D01*
X136647000Y-67061000D02*
X133300000Y-70408000D01*
X126261000Y-67061000D02*
X136647000Y-67061000D01*
X124050000Y-64850000D02*
X126261000Y-67061000D01*
X113750000Y-64850000D02*
X124050000Y-64850000D01*
X106200000Y-72400000D02*
X113750000Y-64850000D01*
X106200000Y-105200000D02*
X106200000Y-72400000D01*
X108691000Y-107691000D02*
X106200000Y-105200000D01*
X110226000Y-107691000D02*
X108691000Y-107691000D01*
X145044000Y-67061000D02*
X147584000Y-69601000D01*
X136647000Y-67061000D02*
X145044000Y-67061000D01*
D14*
%TO.N,HLDA*%
X133120000Y-106576000D02*
X135522000Y-108978000D01*
X117846000Y-107691000D02*
X118961000Y-106576000D01*
X118961000Y-106576000D02*
X133120000Y-106576000D01*
%TO.N,CS640*%
X180185000Y-109650000D02*
X179235000Y-109650000D01*
X179235000Y-109650000D02*
X177600000Y-108015000D01*
X182265000Y-111730000D02*
X180185000Y-109650000D01*
%TO.N,A18*%
X204125000Y-75400000D02*
X203000000Y-74275000D01*
X204125000Y-91650000D02*
X204125000Y-75400000D01*
X203000000Y-92775000D02*
X204125000Y-91650000D01*
%TO.N,A17*%
X194965000Y-111730000D02*
X197920000Y-108775000D01*
X197920000Y-108775000D02*
X197920000Y-108015000D01*
%TO.N,A18*%
X194100000Y-101675000D02*
X203000000Y-92775000D01*
X194100000Y-108345991D02*
X194100000Y-101675000D01*
X189885000Y-111730000D02*
X190715991Y-111730000D01*
X190715991Y-111730000D02*
X194100000Y-108345991D01*
%TO.N,A19*%
X184280000Y-111730000D02*
X184805000Y-111730000D01*
X178725000Y-104925000D02*
X181555000Y-107755000D01*
X181555000Y-109005000D02*
X184280000Y-111730000D01*
X178725000Y-90640000D02*
X178725000Y-104925000D01*
X177600000Y-89515000D02*
X178725000Y-90640000D01*
X181555000Y-107755000D02*
X181555000Y-109005000D01*
X167846000Y-79761000D02*
X147584000Y-79761000D01*
X177600000Y-89515000D02*
X167846000Y-79761000D01*
%TO.N,RESET*%
X171600000Y-118900000D02*
X140226000Y-118900000D01*
X140226000Y-118900000D02*
X136647000Y-115321000D01*
X176850000Y-124150000D02*
X171600000Y-118900000D01*
%TO.N,DTR*%
X145471000Y-106571000D02*
X158946000Y-106571000D01*
X158946000Y-106571000D02*
X160150000Y-107775000D01*
X143800000Y-104900000D02*
X145471000Y-106571000D01*
%TD*%
M02*
