%TF.GenerationSoftware,KiCad,Pcbnew,(6.0.9)*%
%TF.CreationDate,2023-01-14T12:16:42+02:00*%
%TF.ProjectId,CPU,4350552e-6b69-4636-9164-5f7063625858,rev?*%
%TF.SameCoordinates,Original*%
%TF.FileFunction,Legend,Top*%
%TF.FilePolarity,Positive*%
%FSLAX46Y46*%
G04 Gerber Fmt 4.6, Leading zero omitted, Abs format (unit mm)*
G04 Created by KiCad (PCBNEW (6.0.9)) date 2023-01-14 12:16:42*
%MOMM*%
%LPD*%
G01*
G04 APERTURE LIST*
%ADD10C,0.150000*%
%ADD11C,0.120000*%
%ADD12C,0.254000*%
%ADD13C,0.304800*%
%ADD14C,0.381000*%
%ADD15C,4.064000*%
G04 APERTURE END LIST*
D10*
%TO.C,U19*%
X204782380Y-101633095D02*
X205591904Y-101633095D01*
X205687142Y-101585476D01*
X205734761Y-101537857D01*
X205782380Y-101442619D01*
X205782380Y-101252142D01*
X205734761Y-101156904D01*
X205687142Y-101109285D01*
X205591904Y-101061666D01*
X204782380Y-101061666D01*
X205782380Y-100061666D02*
X205782380Y-100633095D01*
X205782380Y-100347380D02*
X204782380Y-100347380D01*
X204925238Y-100442619D01*
X205020476Y-100537857D01*
X205068095Y-100633095D01*
X205782380Y-99585476D02*
X205782380Y-99395000D01*
X205734761Y-99299761D01*
X205687142Y-99252142D01*
X205544285Y-99156904D01*
X205353809Y-99109285D01*
X204972857Y-99109285D01*
X204877619Y-99156904D01*
X204830000Y-99204523D01*
X204782380Y-99299761D01*
X204782380Y-99490238D01*
X204830000Y-99585476D01*
X204877619Y-99633095D01*
X204972857Y-99680714D01*
X205210952Y-99680714D01*
X205306190Y-99633095D01*
X205353809Y-99585476D01*
X205401428Y-99490238D01*
X205401428Y-99299761D01*
X205353809Y-99204523D01*
X205306190Y-99156904D01*
X205210952Y-99109285D01*
%TO.C,U2*%
X155578095Y-109557380D02*
X155578095Y-110366904D01*
X155625714Y-110462142D01*
X155673333Y-110509761D01*
X155768571Y-110557380D01*
X155959047Y-110557380D01*
X156054285Y-110509761D01*
X156101904Y-110462142D01*
X156149523Y-110366904D01*
X156149523Y-109557380D01*
X156578095Y-109652619D02*
X156625714Y-109605000D01*
X156720952Y-109557380D01*
X156959047Y-109557380D01*
X157054285Y-109605000D01*
X157101904Y-109652619D01*
X157149523Y-109747857D01*
X157149523Y-109843095D01*
X157101904Y-109985952D01*
X156530476Y-110557380D01*
X157149523Y-110557380D01*
%TO.C,U21*%
X176847380Y-116778095D02*
X177656904Y-116778095D01*
X177752142Y-116730476D01*
X177799761Y-116682857D01*
X177847380Y-116587619D01*
X177847380Y-116397142D01*
X177799761Y-116301904D01*
X177752142Y-116254285D01*
X177656904Y-116206666D01*
X176847380Y-116206666D01*
X176942619Y-115778095D02*
X176895000Y-115730476D01*
X176847380Y-115635238D01*
X176847380Y-115397142D01*
X176895000Y-115301904D01*
X176942619Y-115254285D01*
X177037857Y-115206666D01*
X177133095Y-115206666D01*
X177275952Y-115254285D01*
X177847380Y-115825714D01*
X177847380Y-115206666D01*
X177847380Y-114254285D02*
X177847380Y-114825714D01*
X177847380Y-114540000D02*
X176847380Y-114540000D01*
X176990238Y-114635238D01*
X177085476Y-114730476D01*
X177133095Y-114825714D01*
%TO.C,U1*%
X128265095Y-64183380D02*
X128265095Y-64992904D01*
X128312714Y-65088142D01*
X128360333Y-65135761D01*
X128455571Y-65183380D01*
X128646047Y-65183380D01*
X128741285Y-65135761D01*
X128788904Y-65088142D01*
X128836523Y-64992904D01*
X128836523Y-64183380D01*
X129836523Y-65183380D02*
X129265095Y-65183380D01*
X129550809Y-65183380D02*
X129550809Y-64183380D01*
X129455571Y-64326238D01*
X129360333Y-64421476D01*
X129265095Y-64469095D01*
%TO.C,U7*%
X143012095Y-66723380D02*
X143012095Y-67532904D01*
X143059714Y-67628142D01*
X143107333Y-67675761D01*
X143202571Y-67723380D01*
X143393047Y-67723380D01*
X143488285Y-67675761D01*
X143535904Y-67628142D01*
X143583523Y-67532904D01*
X143583523Y-66723380D01*
X143964476Y-66723380D02*
X144631142Y-66723380D01*
X144202571Y-67723380D01*
%TO.C,U4*%
X143002095Y-94658380D02*
X143002095Y-95467904D01*
X143049714Y-95563142D01*
X143097333Y-95610761D01*
X143192571Y-95658380D01*
X143383047Y-95658380D01*
X143478285Y-95610761D01*
X143525904Y-95563142D01*
X143573523Y-95467904D01*
X143573523Y-94658380D01*
X144478285Y-94991714D02*
X144478285Y-95658380D01*
X144240190Y-94610761D02*
X144002095Y-95325047D01*
X144621142Y-95325047D01*
%TO.C,U3*%
X113274095Y-109473380D02*
X113274095Y-110282904D01*
X113321714Y-110378142D01*
X113369333Y-110425761D01*
X113464571Y-110473380D01*
X113655047Y-110473380D01*
X113750285Y-110425761D01*
X113797904Y-110378142D01*
X113845523Y-110282904D01*
X113845523Y-109473380D01*
X114226476Y-109473380D02*
X114845523Y-109473380D01*
X114512190Y-109854333D01*
X114655047Y-109854333D01*
X114750285Y-109901952D01*
X114797904Y-109949571D01*
X114845523Y-110044809D01*
X114845523Y-110282904D01*
X114797904Y-110378142D01*
X114750285Y-110425761D01*
X114655047Y-110473380D01*
X114369333Y-110473380D01*
X114274095Y-110425761D01*
X114226476Y-110378142D01*
%TO.C,U5*%
X204782380Y-82656904D02*
X205591904Y-82656904D01*
X205687142Y-82609285D01*
X205734761Y-82561666D01*
X205782380Y-82466428D01*
X205782380Y-82275952D01*
X205734761Y-82180714D01*
X205687142Y-82133095D01*
X205591904Y-82085476D01*
X204782380Y-82085476D01*
X204782380Y-81133095D02*
X204782380Y-81609285D01*
X205258571Y-81656904D01*
X205210952Y-81609285D01*
X205163333Y-81514047D01*
X205163333Y-81275952D01*
X205210952Y-81180714D01*
X205258571Y-81133095D01*
X205353809Y-81085476D01*
X205591904Y-81085476D01*
X205687142Y-81133095D01*
X205734761Y-81180714D01*
X205782380Y-81275952D01*
X205782380Y-81514047D01*
X205734761Y-81609285D01*
X205687142Y-81656904D01*
%TO.C,R2*%
X119213333Y-111738380D02*
X118880000Y-111262190D01*
X118641904Y-111738380D02*
X118641904Y-110738380D01*
X119022857Y-110738380D01*
X119118095Y-110786000D01*
X119165714Y-110833619D01*
X119213333Y-110928857D01*
X119213333Y-111071714D01*
X119165714Y-111166952D01*
X119118095Y-111214571D01*
X119022857Y-111262190D01*
X118641904Y-111262190D01*
X119594285Y-110833619D02*
X119641904Y-110786000D01*
X119737142Y-110738380D01*
X119975238Y-110738380D01*
X120070476Y-110786000D01*
X120118095Y-110833619D01*
X120165714Y-110928857D01*
X120165714Y-111024095D01*
X120118095Y-111166952D01*
X119546666Y-111738380D01*
X120165714Y-111738380D01*
%TO.C,R1*%
X131060333Y-91418380D02*
X130727000Y-90942190D01*
X130488904Y-91418380D02*
X130488904Y-90418380D01*
X130869857Y-90418380D01*
X130965095Y-90466000D01*
X131012714Y-90513619D01*
X131060333Y-90608857D01*
X131060333Y-90751714D01*
X131012714Y-90846952D01*
X130965095Y-90894571D01*
X130869857Y-90942190D01*
X130488904Y-90942190D01*
X132012714Y-91418380D02*
X131441285Y-91418380D01*
X131727000Y-91418380D02*
X131727000Y-90418380D01*
X131631761Y-90561238D01*
X131536523Y-90656476D01*
X131441285Y-90704095D01*
%TO.C,R3*%
X155190333Y-122592380D02*
X154857000Y-122116190D01*
X154618904Y-122592380D02*
X154618904Y-121592380D01*
X154999857Y-121592380D01*
X155095095Y-121640000D01*
X155142714Y-121687619D01*
X155190333Y-121782857D01*
X155190333Y-121925714D01*
X155142714Y-122020952D01*
X155095095Y-122068571D01*
X154999857Y-122116190D01*
X154618904Y-122116190D01*
X155523666Y-121592380D02*
X156142714Y-121592380D01*
X155809380Y-121973333D01*
X155952238Y-121973333D01*
X156047476Y-122020952D01*
X156095095Y-122068571D01*
X156142714Y-122163809D01*
X156142714Y-122401904D01*
X156095095Y-122497142D01*
X156047476Y-122544761D01*
X155952238Y-122592380D01*
X155666523Y-122592380D01*
X155571285Y-122544761D01*
X155523666Y-122497142D01*
D11*
%TO.C,U19*%
X204330000Y-99395000D02*
G75*
G03*
X204330000Y-101395000I0J-1000000D01*
G01*
X163570000Y-106855000D02*
X204330000Y-106855000D01*
X204330000Y-93935000D02*
X163570000Y-93935000D01*
X163570000Y-93935000D02*
X163570000Y-106855000D01*
X204330000Y-106855000D02*
X204330000Y-101395000D01*
X204330000Y-99395000D02*
X204330000Y-93935000D01*
D12*
%TO.C,BUS1*%
X182880000Y-125412500D02*
X182880000Y-134302500D01*
D13*
X182880000Y-134302500D02*
X101600000Y-134302500D01*
D12*
X101600000Y-134302500D02*
X101600000Y-125412500D01*
X182880000Y-125412500D02*
X101600000Y-125412500D01*
D11*
%TO.C,U2*%
X151200000Y-83525000D02*
X151200000Y-109165000D01*
X157340000Y-109105000D02*
X158990000Y-109105000D01*
X158990000Y-109105000D02*
X158990000Y-83585000D01*
X161480000Y-83525000D02*
X151200000Y-83525000D01*
X153690000Y-109105000D02*
X155340000Y-109105000D01*
X153690000Y-83585000D02*
X153690000Y-109105000D01*
X161480000Y-109165000D02*
X161480000Y-83525000D01*
X158990000Y-83585000D02*
X153690000Y-83585000D01*
X151200000Y-109165000D02*
X161480000Y-109165000D01*
X157340000Y-109105000D02*
G75*
G03*
X155340000Y-109105000I-1000000J0D01*
G01*
%TO.C,U21*%
X178395000Y-118190000D02*
X203915000Y-118190000D01*
X178335000Y-110400000D02*
X178335000Y-120680000D01*
X203915000Y-112890000D02*
X178395000Y-112890000D01*
X178395000Y-116540000D02*
X178395000Y-118190000D01*
X203915000Y-118190000D02*
X203915000Y-112890000D01*
X178335000Y-120680000D02*
X203975000Y-120680000D01*
X203975000Y-110400000D02*
X178335000Y-110400000D01*
X203975000Y-120680000D02*
X203975000Y-110400000D01*
X178395000Y-112890000D02*
X178395000Y-114540000D01*
X178395000Y-116540000D02*
G75*
G03*
X178395000Y-114540000I0J1000000D01*
G01*
%TO.C,U1*%
X122567000Y-65731000D02*
X122567000Y-116651000D01*
X135487000Y-116651000D02*
X135487000Y-65731000D01*
X135487000Y-65731000D02*
X130027000Y-65731000D01*
X128027000Y-65731000D02*
X122567000Y-65731000D01*
X122567000Y-116651000D02*
X135487000Y-116651000D01*
X128027000Y-65731000D02*
G75*
G03*
X130027000Y-65731000I1000000J0D01*
G01*
%TO.C,U7*%
X141124000Y-68271000D02*
X141124000Y-93791000D01*
X146424000Y-93791000D02*
X146424000Y-68271000D01*
X148914000Y-68211000D02*
X138634000Y-68211000D01*
X148914000Y-93851000D02*
X148914000Y-68211000D01*
X138634000Y-93851000D02*
X148914000Y-93851000D01*
X146424000Y-68271000D02*
X144774000Y-68271000D01*
X138634000Y-68211000D02*
X138634000Y-93851000D01*
X141124000Y-93791000D02*
X146424000Y-93791000D01*
X142774000Y-68271000D02*
X141124000Y-68271000D01*
X142774000Y-68271000D02*
G75*
G03*
X144774000Y-68271000I1000000J0D01*
G01*
%TO.C,U4*%
X146414000Y-116646000D02*
X146414000Y-96206000D01*
X148904000Y-96146000D02*
X138624000Y-96146000D01*
X142764000Y-96206000D02*
X141114000Y-96206000D01*
X141114000Y-116646000D02*
X146414000Y-116646000D01*
X146414000Y-96206000D02*
X144764000Y-96206000D01*
X141114000Y-96206000D02*
X141114000Y-116646000D01*
X138624000Y-116706000D02*
X148904000Y-116706000D01*
X148904000Y-116706000D02*
X148904000Y-96146000D01*
X138624000Y-96146000D02*
X138624000Y-116706000D01*
X142764000Y-96206000D02*
G75*
G03*
X144764000Y-96206000I1000000J0D01*
G01*
%TO.C,U3*%
X111386000Y-83501000D02*
X111386000Y-109021000D01*
X116686000Y-83501000D02*
X111386000Y-83501000D01*
X115036000Y-109021000D02*
X116686000Y-109021000D01*
X119176000Y-109081000D02*
X119176000Y-83441000D01*
X108896000Y-109081000D02*
X119176000Y-109081000D01*
X119176000Y-83441000D02*
X108896000Y-83441000D01*
X108896000Y-83441000D02*
X108896000Y-109081000D01*
X116686000Y-109021000D02*
X116686000Y-83501000D01*
X111386000Y-109021000D02*
X113036000Y-109021000D01*
X115036000Y-109021000D02*
G75*
G03*
X113036000Y-109021000I-1000000J0D01*
G01*
D14*
%TO.C,HOLE1*%
X204216000Y-67310000D02*
G75*
G03*
X204216000Y-67310000I-2286000J0D01*
G01*
%TO.C,HOLE2*%
X204216000Y-123825000D02*
G75*
G03*
X204216000Y-123825000I-2286000J0D01*
G01*
D11*
%TO.C,U5*%
X163570000Y-75435000D02*
X163570000Y-88355000D01*
X204330000Y-80895000D02*
X204330000Y-75435000D01*
X204330000Y-88355000D02*
X204330000Y-82895000D01*
X204330000Y-75435000D02*
X163570000Y-75435000D01*
X163570000Y-88355000D02*
X204330000Y-88355000D01*
X204330000Y-80895000D02*
G75*
G03*
X204330000Y-82895000I0J-1000000D01*
G01*
%TD*%
D15*
%TO.C,HOLE1*%
X201930000Y-67310000D03*
%TD*%
%TO.C,HOLE2*%
X201930000Y-123825000D03*
%TD*%
M02*
