M48
; DRILL file {KiCad (6.0.9)} date Sat Jan 14 12:16:45 2023
; FORMAT={-:-/ absolute / inch / decimal}
; #@! TF.CreationDate,2023-01-14T12:16:45+02:00
; #@! TF.GenerationSoftware,Kicad,Pcbnew,(6.0.9)
; #@! TF.FileFunction,Plated,1,4,PTH
FMAT,2
INCH
; #@! TA.AperFunction,Plated,PTH,ViaDrill
T1C0.0157
; #@! TA.AperFunction,Plated,PTH,ComponentDrill
T2C0.0315
; #@! TA.AperFunction,Plated,PTH,ComponentDrill
T3C0.1200
%
G90
G05
T1
X4.1Y-2.7
X4.1Y-2.9
X4.1Y-3.1
X4.1Y-3.3
X4.1Y-3.5
X4.1Y-3.7
X4.1Y-3.9
X4.1Y-4.1
X4.1Y-4.3
X4.1Y-4.5
X4.1Y-4.7
X4.3Y-2.9
X4.3Y-3.1
X4.4Y-4.9226
X4.5Y-2.7
X4.5Y-2.9
X4.5Y-3.1
X4.5079Y-4.9016
X4.55Y-4.14
X4.6Y-4.8943
X4.6654Y-4.5472
X4.6654Y-4.8622
X4.685Y-4.685
X4.7Y-2.7
X4.7Y-2.9
X4.7Y-3.1
X4.73Y-4.39
X4.7835Y-4.685
X4.7835Y-4.7835
X4.8543Y-3.8425
X5.0404Y-4.8327
X5.0699Y-4.7303
X5.0827Y-2.937
X5.0915Y-3.5492
X5.1132Y-3.0925
X5.1152Y-3.1909
X5.123Y-3.7441
X5.13Y-4.39
X5.1683Y-3.0226
X5.189Y-3.6476
X5.1988Y-3.2854
X5.2Y-4.9136
X5.2067Y-4.7667
X5.2333Y-3.7461
X5.2333Y-4.0463
X5.2352Y-4.6378
X5.2362Y-3.3465
X5.24Y-4.24
X5.2559Y-4.8622
X5.29Y-4.1945
X5.29Y-4.2907
X5.3355Y-4.1945
X5.3355Y-4.2905
X5.3474Y-4.8071
X5.4813Y-4.8415
X5.5906Y-3.3465
X5.6Y-4.89
X5.6565Y-4.8898
X5.6614Y-4.1299
X5.6614Y-4.189
X5.6693Y-4.6378
X5.7598Y-4.9203
X5.8622Y-4.6467
X5.8701Y-4.3917
X5.9094Y-3.1909
X5.9518Y-4.6319
X5.9537Y-3.0925
X5.9626Y-4.3937
X6.0136Y-2.9959
X6.0276Y-4.376
X6.0581Y-4.6329
X6.0746Y-2.8959
X6.1496Y-4.7884
X6.1535Y-4.5846
X6.1614Y-3.3465
X6.1614Y-4.8504
X6.2008Y-3.4449
X6.2008Y-3.5433
X6.2008Y-3.6417
X6.2008Y-3.7402
X6.2106Y-4.6024
X6.2411Y-4.497
X6.2598Y-4.7244
X6.3Y-2.7
X6.315Y-2.7933
X6.3583Y-4.5276
X6.3583Y-4.8819
X6.4567Y-4.5276
X6.4567Y-4.8819
X6.4665Y-4.1319
X6.498Y-3.3406
X6.5Y-2.7
X6.5512Y-4.8937
X6.5551Y-4.5276
X6.5551Y-4.7244
X6.5886Y-3.2854
X6.6535Y-4.5276
X6.7Y-2.7
X6.751Y-4.7884
X6.752Y-4.5276
X6.752Y-4.8819
X6.7872Y-3.3959
X6.8504Y-4.4488
X6.8701Y-3.4547
X6.8888Y-3.3406
X6.9Y-2.7
X6.9626Y-4.8878
X6.9892Y-3.9537
X6.9902Y-3.5906
X6.9902Y-3.9941
X6.9921Y-4.0709
X6.9921Y-4.1683
X6.9931Y-4.1171
X7.1Y-2.7
X7.1004Y-3.9941
X7.1004Y-4.0709
X7.1969Y-3.7461
X7.2402Y-4.3228
X7.2746Y-3.062
X7.3Y-2.7
X7.3Y-4.9
X7.5Y-2.7
X7.5Y-4.9
X7.7Y-2.7
X7.7Y-4.9
X7.9331Y-3.8583
X7.9331Y-4.0157
T2
X4.3396Y-3.3398
X4.3396Y-3.4398
X4.3396Y-3.5398
X4.3396Y-3.6398
X4.3396Y-3.7398
X4.3396Y-3.8398
X4.3396Y-3.9398
X4.3396Y-4.0398
X4.3396Y-4.1398
X4.3396Y-4.2398
X4.6396Y-3.3398
X4.6396Y-3.4398
X4.6396Y-3.5398
X4.6396Y-3.6398
X4.6396Y-3.7398
X4.6396Y-3.8398
X4.6396Y-3.9398
X4.6396Y-4.0398
X4.6396Y-4.1398
X4.6396Y-4.2398
X4.7798Y-2.6402
X4.7798Y-2.7402
X4.7798Y-2.8402
X4.7798Y-2.9402
X4.7798Y-3.0402
X4.7798Y-3.1402
X4.7798Y-3.2402
X4.7798Y-3.3402
X4.7798Y-3.4402
X4.7798Y-3.5402
X4.7798Y-3.6402
X4.7798Y-3.7402
X4.7798Y-3.8402
X4.7798Y-3.9402
X4.7798Y-4.0402
X4.7798Y-4.1402
X4.7798Y-4.2402
X4.7798Y-4.3402
X4.7798Y-4.4402
X4.7798Y-4.5402
X5.3798Y-2.6402
X5.3798Y-2.7402
X5.3798Y-2.8402
X5.3798Y-2.9402
X5.3798Y-3.0402
X5.3798Y-3.1402
X5.3798Y-3.2402
X5.3798Y-3.3402
X5.3798Y-3.4402
X5.3798Y-3.5402
X5.3798Y-3.6402
X5.3798Y-3.7402
X5.3798Y-3.8402
X5.3798Y-3.9402
X5.3798Y-4.0402
X5.3798Y-4.1402
X5.3798Y-4.2402
X5.3798Y-4.3402
X5.3798Y-4.4402
X5.3798Y-4.5402
X5.51Y-3.84
X5.51Y-3.94
X5.51Y-4.04
X5.51Y-4.14
X5.51Y-4.24
X5.51Y-4.34
X5.51Y-4.44
X5.51Y-4.54
X5.5104Y-2.7402
X5.5104Y-2.8402
X5.5104Y-2.9402
X5.5104Y-3.0402
X5.5104Y-3.1402
X5.5104Y-3.2402
X5.5104Y-3.3402
X5.5104Y-3.4402
X5.5104Y-3.5402
X5.5104Y-3.6402
X5.81Y-3.84
X5.81Y-3.94
X5.81Y-4.04
X5.81Y-4.14
X5.81Y-4.24
X5.81Y-4.34
X5.81Y-4.44
X5.81Y-4.54
X5.8104Y-2.7402
X5.8104Y-2.8402
X5.8104Y-2.9402
X5.8104Y-3.0402
X5.8104Y-3.1402
X5.8104Y-3.2402
X5.8104Y-3.3402
X5.8104Y-3.4402
X5.8104Y-3.5402
X5.8104Y-3.6402
X6.0051Y-3.3431
X6.0051Y-3.4431
X6.0051Y-3.5431
X6.0051Y-3.6431
X6.0051Y-3.7431
X6.0051Y-3.8431
X6.0051Y-3.9431
X6.0051Y-4.0431
X6.0051Y-4.1431
X6.0051Y-4.2431
X6.3051Y-3.3431
X6.3051Y-3.4431
X6.3051Y-3.5431
X6.3051Y-3.6431
X6.3051Y-3.7431
X6.3051Y-3.8431
X6.3051Y-3.9431
X6.3051Y-4.0431
X6.3051Y-4.1431
X6.3051Y-4.2431
X6.4921Y-2.9242
X6.4921Y-3.5242
X6.4921Y-3.6526
X6.4921Y-4.2526
X6.5921Y-2.9242
X6.5921Y-3.5242
X6.5921Y-3.6526
X6.5921Y-4.2526
X6.6921Y-2.9242
X6.6921Y-3.5242
X6.6921Y-3.6526
X6.6921Y-4.2526
X6.7921Y-2.9242
X6.7921Y-3.5242
X6.7921Y-3.6526
X6.7921Y-4.2526
X6.8921Y-2.9242
X6.8921Y-3.5242
X6.8921Y-3.6526
X6.8921Y-4.2526
X6.9921Y-2.9242
X6.9921Y-3.5242
X6.9921Y-3.6526
X6.9921Y-4.2526
X7.0758Y-4.3988
X7.0758Y-4.6988
X7.0921Y-2.9242
X7.0921Y-3.5242
X7.0921Y-3.6526
X7.0921Y-4.2526
X7.1758Y-4.3988
X7.1758Y-4.6988
X7.1921Y-2.9242
X7.1921Y-3.5242
X7.1921Y-3.6526
X7.1921Y-4.2526
X7.2758Y-4.3988
X7.2758Y-4.6988
X7.2921Y-2.9242
X7.2921Y-3.5242
X7.2921Y-3.6526
X7.2921Y-4.2526
X7.3758Y-4.3988
X7.3758Y-4.6988
X7.3921Y-2.9242
X7.3921Y-3.5242
X7.3921Y-3.6526
X7.3921Y-4.2526
X7.4758Y-4.3988
X7.4758Y-4.6988
X7.4921Y-2.9242
X7.4921Y-3.5242
X7.4921Y-3.6526
X7.4921Y-4.2526
X7.5758Y-4.3988
X7.5758Y-4.6988
X7.5921Y-2.9242
X7.5921Y-3.5242
X7.5921Y-3.6526
X7.5921Y-4.2526
X7.6758Y-4.3988
X7.6758Y-4.6988
X7.6921Y-2.9242
X7.6921Y-3.5242
X7.6921Y-3.6526
X7.6921Y-4.2526
X7.7758Y-4.3988
X7.7758Y-4.6988
X7.7921Y-2.9242
X7.7921Y-3.5242
X7.7921Y-3.6526
X7.7921Y-4.2526
X7.8758Y-4.3988
X7.8758Y-4.6988
X7.8921Y-2.9242
X7.8921Y-3.5242
X7.8921Y-3.6526
X7.8921Y-4.2526
X7.9758Y-4.3988
X7.9758Y-4.6988
X7.9921Y-2.9242
X7.9921Y-3.5242
X7.9921Y-3.6526
X7.9921Y-4.2526
T3
X7.95Y-2.65
X7.95Y-4.875
T0
M30
